HIERARCHY
ROOT Hips
{
	OFFSET 0.00000 0.00000 0.00000
	CHANNELS 6 Xposition Yposition Zposition Zrotation Yrotation Xrotation 
	JOINT LHipJoint
	{
		OFFSET 0 0 0
		CHANNELS 3 Zrotation Yrotation Xrotation
		JOINT LeftHip
		{
			OFFSET 1.34019 -1.87553 0.90315
			CHANNELS 3 Zrotation Yrotation Xrotation
			JOINT LeftKnee
			{
				OFFSET 2.55316 -7.01474 0.00000
				CHANNELS 3 Zrotation Yrotation Xrotation
				JOINT LeftAnkle
				{
					OFFSET 2.64657 -7.27139 0.00000
					CHANNELS 3 Zrotation Yrotation Xrotation
					JOINT LeftToe
					{
						OFFSET 0.24207 -0.66507 2.14489
						CHANNELS 3 Zrotation Yrotation Xrotation
						End Site
						{
							OFFSET 0.00000 -0.00000 1.12451
						}
					}
				}
			}
		}
	}
	JOINT RHipJoint
	{
		OFFSET 0 0 0
		CHANNELS 3 Zrotation Yrotation Xrotation
		JOINT RightHip
		{
			OFFSET -1.28320 -1.87553 0.90315
			CHANNELS 3 Zrotation Yrotation Xrotation
			JOINT RightKnee
			{
				OFFSET -2.60484 -7.15674 0.00000
				CHANNELS 3 Zrotation Yrotation Xrotation
				JOINT RightAnkle
				{
					OFFSET -2.60296 -7.15159 0.00000
					CHANNELS 3 Zrotation Yrotation Xrotation
					JOINT RightToe
					{
						OFFSET -0.31082 -0.85398 2.28998
						CHANNELS 3 Zrotation Yrotation Xrotation
						End Site
						{
							OFFSET -0.00000 -0.00000 1.21611
						}
					}
				}
			}
		}
	}
	JOINT lowerback
	{
		OFFSET 0 0 0
		CHANNELS 3 Zrotation Yrotation Xrotation
		JOINT Chest
		{
			OFFSET -0.00160 2.05581 -0.15156
			CHANNELS 3 Zrotation Yrotation Xrotation
			JOINT Chest2
			{
				OFFSET 0.04594 2.06326 -0.01617
				CHANNELS 3 Zrotation Yrotation Xrotation
				JOINT lowerneck
				{
					OFFSET 0 0 0
					CHANNELS 3 Zrotation Yrotation Xrotation
					JOINT Neck
					{
						OFFSET 0.03753 1.73883 0.26751
						CHANNELS 3 Zrotation Yrotation Xrotation
						JOINT Head
						{
							OFFSET -0.09795 1.76129 -0.31794
							CHANNELS 3 Zrotation Yrotation Xrotation
							End Site
							{
								OFFSET -0.03611 1.79987 -0.13846
							}
						}
					}
				}
				JOINT LeftCollar
				{
					OFFSET 0 0 0
					CHANNELS 3 Zrotation Yrotation Xrotation
					JOINT LeftShoulder
					{
						OFFSET 3.30667 1.29205 -0.22445
CHANNELS 3 Zrotation Xrotation Yrotation
						JOINT LeftElbow
						{
OFFSET 0 -4.927850 -0.000000
CHANNELS 3 Zrotation Xrotation Yrotation
							JOINT LeftWrist
							{
OFFSET 0 -3.440520 0.000000
CHANNELS 3 Zrotation Xrotation Yrotation
								JOINT lhand
								{
									OFFSET 0 0 0
CHANNELS 3 Zrotation Xrotation Yrotation
									JOINT LFingers
									{
OFFSET 0 -0.654330 0.000000
CHANNELS 3 Zrotation Xrotation Yrotation
										End Site
										{
OFFSET 0 -0.527530 0.000000
										}
									}
								}
								JOINT LThumb
								{
OFFSET 0 0.000000 0.000000
CHANNELS 3 Zrotation Xrotation Yrotation
									End Site
									{
OFFSET 0 -0.535590 0.535590
									}
								}
							}
						}
					}
				}
				JOINT RightCollar
				{
					OFFSET 0 0 0
					CHANNELS 3 Zrotation Yrotation Xrotation
					JOINT RightShoulder
					{
						OFFSET -3.20032 1.49783 -0.27688
CHANNELS 3 Zrotation Xrotation Yrotation
						JOINT RightElbow
						{
OFFSET 0 -5.091810 -0.000000
CHANNELS 3 Zrotation Xrotation Yrotation
							JOINT RightWrist
							{
OFFSET 0 -3.498650 -0.000000
CHANNELS 3 Zrotation Xrotation Yrotation
								JOINT rhand
								{
									OFFSET 0 0 0
CHANNELS 3 Zrotation Xrotation Yrotation
									JOINT RFingers
									{
OFFSET 0 -0.666410 0.000000
CHANNELS 3 Zrotation Xrotation Yrotation
										End Site
										{
OFFSET 0 -0.537280 0.000000
										}
									}
								}
								JOINT RThumb
								{
OFFSET 0 0.000000 0.000000
CHANNELS 3 Zrotation Xrotation Yrotation
									End Site
									{
OFFSET 0 -0.545480 0.545480
									}
								}
							}
						}
					}
				}
			}
		}
	}
}
MOTION
Frames: 10
Frame Time: 0.008333333333333333
1.035200 17.807700 -29.529400 -1.020000 6.882600 -1.265300 0.000000 0.000000 0.000000 -25.224900 0.775600 -3.898600 1.654100 8.105000 23.033600 0.463100 6.576600 -16.926500 0.131200 -2.334400 -6.430900 0.000000 0.000000 0.000000 12.818000 -1.870400 -20.302800 -14.233200 -19.183200 72.915300 0.141700 -12.097500 6.362100 -0.007100 0.545500 -1.499000 -7.224700 -0.432000 7.103300 2.236200 -1.098100 -0.620900 6.549300 -0.340600 -4.469400 8.921000 2.184600 -17.465800 -3.751200 1.442500 21.321200 -2.602700 0.969000 9.750400 0.000000 0.000000 0.000000 5.183700 5.568200 -25.934800 14.243600 -23.081900 2.922900 12.746300 3.454500 1.775800 0.000000 0.000000 0.000000 -7.125000 0.000000 0.000000 -10.661200 28.099500 -4.454200 0.000000 0.000000 0.000000 -6.898300 9.617000 8.690800 -17.957900 -28.103200 -4.529400 -17.473000 -9.070800 -2.322500 0.000000 0.000000 0.000000 7.125000 0.000000 -0.000000 7.001200 27.524700 2.994000
1.034352 17.805579 -29.525634 -0.984572 6.924478 -1.241212 0.000000 0.000000 0.000000 -25.344213 0.493751 -3.849858 1.668847 8.139285 23.137972 0.450044 6.965214 -17.108065 0.110594 -2.144055 -5.903889 0.000000 0.000000 0.000000 12.774949 -1.905887 -20.281116 -14.255069 -19.189566 72.982049 0.143937 -12.052362 6.283980 -0.006578 0.522543 -1.435895 -7.233042 -0.436548 7.032184 2.253084 -1.098216 -0.582352 6.569537 -0.345035 -4.388097 8.978785 2.174347 -17.478481 -3.873646 1.440085 21.285412 -2.655484 0.957682 9.740761 0.000000 0.000000 0.000000 5.181885 5.551906 -25.851360 14.275729 -23.127505 2.935540 12.678815 3.282383 1.726081 0.000000 0.000000 0.000000 -7.125000 0.000000 0.000000 -10.717561 28.149482 -4.465618 0.000000 0.000000 0.000000 -6.920937 9.616768 8.721044 -17.951112 -28.094565 -4.526225 -17.581075 -8.989253 -2.250092 0.000000 0.000000 0.000000 7.125000 0.000000 0.000000 6.922561 27.599169 2.947678
1.034224 17.802476 -29.521737 -1.066225 6.879644 -1.257533 0.000000 0.000000 0.000000 -25.363528 0.119753 -3.780535 1.686161 8.179214 23.259791 0.407281 7.620351 -17.186288 0.096702 -2.000833 -5.508011 0.000000 0.000000 0.000000 12.884945 -1.864542 -20.249805 -14.261578 -19.191470 73.001778 0.136409 -11.966810 6.330228 -0.008888 0.607207 -1.668585 -7.103372 -0.421399 7.016608 2.298694 -1.063292 -0.561551 6.539492 -0.331967 -4.364249 8.932842 2.161317 -17.478871 -3.896725 1.440994 21.313749 -2.656322 0.952204 9.750300 0.000000 0.000000 0.000000 5.182030 5.540494 -25.785740 14.273263 -23.124001 2.934526 12.618499 3.103903 1.689129 0.000000 0.000000 0.000000 -7.125000 0.000000 0.000000 -10.767359 28.186501 -4.477367 0.000000 0.000000 0.000000 -6.933577 9.547309 8.631920 -17.879954 -28.003212 -4.492725 -17.577344 -8.880622 -2.312212 0.000000 0.000000 0.000000 7.125000 0.000000 0.000000 6.921914 27.534503 2.958002
1.035436 17.800691 -29.516256 -1.136749 6.852366 -1.282478 0.000000 0.000000 0.000000 -25.394188 -0.129774 -3.724304 1.705486 8.223625 23.395510 0.375718 8.145380 -17.307013 0.073631 -1.749092 -4.812755 0.000000 0.000000 0.000000 12.979145 -1.848499 -20.192730 -14.264281 -19.192209 73.009879 0.135701 -11.991839 6.364382 -0.008727 0.601880 -1.653994 -6.951241 -0.419166 7.056172 2.335518 -1.048424 -0.566184 6.491091 -0.326248 -4.395392 8.883381 2.151556 -17.513421 -3.925371 1.445616 21.371874 -2.658525 0.947928 9.777023 0.000000 0.000000 0.000000 5.175439 5.606411 -25.702609 14.291351 -23.149722 2.941680 12.739603 2.924682 1.766089 0.000000 0.000000 0.000000 -7.125000 0.000000 0.000000 -10.667260 28.109248 -4.454338 0.000000 0.000000 0.000000 -6.976099 9.554496 8.652300 -17.849629 -27.964251 -4.478496 -17.519378 -8.843254 -2.292757 0.000000 0.000000 0.000000 7.125000 0.000000 0.000000 6.967415 27.555298 2.974261
1.036903 17.798389 -29.511408 -1.209973 6.781909 -1.299167 0.000000 0.000000 0.000000 -25.428954 -0.416525 -3.681977 1.728477 8.276018 23.555574 0.340497 8.713884 -17.448803 0.060419 -1.585400 -4.361206 0.000000 0.000000 0.000000 13.077734 -1.787485 -20.138495 -14.266063 -19.192754 73.015275 0.133543 -11.991677 6.400451 -0.008715 0.603058 -1.657129 -6.783005 -0.418920 7.119852 2.369105 -1.036227 -0.559553 6.430633 -0.322597 -4.428078 8.813486 2.117073 -17.474564 -3.974698 1.432280 21.284934 -2.664877 0.928821 9.737037 0.000000 0.000000 0.000000 5.166372 5.615278 -25.536827 14.305738 -23.170024 2.947316 12.770992 2.797643 1.780134 0.000000 0.000000 0.000000 -7.125000 0.000000 0.000000 -10.641833 28.095166 -4.447042 0.000000 0.000000 0.000000 -7.021814 9.497000 8.695915 -17.797528 -27.897133 -4.454051 -17.491165 -8.762102 -2.338091 0.000000 0.000000 0.000000 7.125000 0.000000 0.000000 6.986441 27.508436 2.990306
1.038466 17.795962 -29.506908 -1.303220 6.669799 -1.316507 0.000000 0.000000 0.000000 -25.442863 -0.686664 -3.648537 1.752288 8.329846 23.720413 0.304447 9.279461 -17.603694 0.049921 -1.441717 -3.965214 0.000000 0.000000 0.000000 13.207469 -1.680998 -20.079268 -14.268852 -19.193572 73.023963 0.133052 -12.010003 6.424912 -0.008158 0.584319 -1.605749 -6.306150 -0.695342 7.222503 2.316111 -1.373094 -0.584035 6.138366 -0.499987 -4.467939 8.779850 2.162296 -17.607710 -4.344734 1.588486 21.693960 -2.776221 0.961588 9.918719 0.000000 0.000000 0.000000 5.150468 5.846311 -24.598236 14.374641 -23.267803 2.974502 12.813875 2.677979 1.787340 0.000000 0.000000 0.000000 -7.125000 0.000000 0.000000 -10.608446 28.088060 -4.434429 0.000000 0.000000 0.000000 -7.139104 9.336426 9.523424 -17.700863 -27.772410 -4.408967 -17.465686 -8.635012 -2.398065 0.000000 0.000000 0.000000 7.125000 0.000000 0.000000 7.002641 27.446127 3.007615
1.039963 17.792984 -29.502975 -1.380703 6.514512 -1.328830 0.000000 0.000000 0.000000 -25.472624 -0.948687 -3.612290 1.773137 8.376672 23.864187 0.264702 9.846407 -17.743956 0.042449 -1.329501 -3.655998 0.000000 0.000000 0.000000 13.322364 -1.533492 -20.024957 -14.274623 -19.195217 73.041397 0.131647 -12.016809 6.453939 -0.007228 0.549178 -1.509073 -5.912558 -0.905310 7.300168 2.281536 -1.624955 -0.598733 5.904925 -0.633579 -4.499231 8.759756 2.195061 -17.726525 -4.671276 1.715917 22.035401 -2.878042 0.984940 10.073363 0.000000 0.000000 0.000000 5.123472 6.025754 -23.791716 14.434201 -23.352053 2.998062 12.852452 2.598283 1.791808 0.000000 0.000000 0.000000 -7.125000 0.000000 0.000000 -10.578570 28.083592 -4.422616 0.000000 0.000000 0.000000 -7.254641 9.200901 10.229154 -17.625857 -27.675412 -4.374068 -17.452597 -8.540673 -2.447096 0.000000 0.000000 0.000000 7.125000 0.000000 0.000000 7.009848 27.395186 3.019263
1.042217 17.789106 -29.498854 -1.383940 6.341780 -1.341048 0.000000 0.000000 0.000000 -25.578397 -1.175648 -3.551410 1.787467 8.408605 23.962144 0.224027 10.374901 -17.854268 0.035831 -1.220731 -3.356452 0.000000 0.000000 0.000000 13.341489 -1.388966 -19.967045 -14.284148 -19.197956 73.070237 0.127721 -11.982264 6.487169 -0.006210 0.510020 -1.401418 -5.691017 -1.023664 7.319040 2.260039 -1.765267 -0.596128 5.770380 -0.709287 -4.493073 8.756170 2.233123 -17.846168 -4.901078 1.822800 22.336621 -2.950676 1.010276 10.213265 0.000000 0.000000 0.000000 5.083919 6.146919 -23.209197 14.476903 -23.412360 3.015012 12.900390 2.526866 1.795685 0.000000 0.000000 0.000000 -7.125000 0.000000 0.000000 -10.541538 28.079763 -4.407638 0.000000 0.000000 0.000000 -7.364751 9.119873 10.730609 -17.581524 -27.618007 -4.353478 -17.458027 -8.487269 -2.463229 0.000000 0.000000 0.000000 7.125000 0.000000 0.000000 7.004757 27.378422 3.019822
1.045249 17.784515 -29.494594 -1.307573 6.157817 -1.351569 0.000000 0.000000 0.000000 -25.761850 -1.351914 -3.468475 1.793610 8.422307 24.004340 0.185041 10.837753 -17.927647 0.030485 -1.126025 -3.095656 0.000000 0.000000 0.000000 13.255426 -1.257430 -19.912308 -14.297315 -19.201767 73.110501 0.120736 -11.903239 6.530994 -0.007710 0.565388 -1.553618 -5.772280 -0.927461 7.258432 2.292075 -1.638748 -0.561271 5.835109 -0.647071 -4.437391 8.738236 2.247139 -17.895000 -4.877432 1.838245 22.388154 -2.937975 1.019061 10.241941 0.000000 0.000000 0.000000 5.030732 6.110691 -23.170806 14.480612 -23.417579 3.016507 12.948630 2.461804 1.794319 0.000000 0.000000 0.000000 -7.125000 0.000000 0.000000 -10.504787 28.081250 -4.391407 0.000000 0.000000 0.000000 -7.444941 9.129353 10.677608 -17.581093 -27.617399 -4.353268 -17.471330 -8.484836 -2.448654 0.000000 0.000000 0.000000 7.125000 0.000000 0.000000 6.995381 27.393433 3.013252
1.049097 17.779486 -29.490049 -1.162592 5.964020 -1.358541 0.000000 0.000000 0.000000 -26.006798 -1.468759 -3.378331 1.793673 8.422374 24.004633 0.151978 11.211962 -17.981407 0.026848 -1.056802 -2.905204 0.000000 0.000000 0.000000 13.076793 -1.141793 -19.861311 -14.312797 -19.206160 73.157464 0.112706 -11.799589 6.569910 -0.011043 0.677535 -1.861908 -6.094991 -0.645481 7.169621 2.358393 -1.281280 -0.486817 6.049513 -0.466233 -4.352803 8.686354 2.190984 -17.850629 -4.657896 1.717705 22.105012 -2.861946 0.981220 10.120706 0.000000 0.000000 0.000000 4.983061 5.892783 -23.595313 14.448420 -23.372123 3.003757 12.991776 2.395024 1.770277 0.000000 0.000000 0.000000 -7.125000 0.000000 0.000000 -10.474032 28.105595 -4.371988 0.000000 0.000000 0.000000 -7.475758 9.155639 10.114418 -17.602600 -27.645268 -4.363264 -17.488996 -8.498018 -2.427832 0.000000 0.000000 0.000000 7.125000 0.000000 0.000000 6.983109 27.414922 3.004343
